<svg width="25" height="25" viewBox="0 0 25 25" fill="none" xmlns="http://www.w3.org/2000/svg">
<path d="M19.5 3.5H5.5C4.4 3.5 3.5 4.4 3.5 5.5V19.5C3.5 20.6 4.4 21.5 5.5 21.5H19.5C20.6 21.5 21.5 20.6 21.5 19.5V5.5C21.5 4.4 20.6 3.5 19.5 3.5ZM19.5 19.5H5.5V5.5H19.5V19.5ZM6.7 8.2H11.7V9.7H6.7V8.2ZM13.5 16.3H18.5V17.8H13.5V16.3ZM13.5 13.7H18.5V15.2H13.5V13.7ZM8.5 18.5H10V16.5H12V15H10V13H8.5V15H6.5V16.5H8.5V18.5ZM14.6 11.4L16 10L17.4 11.4L18.5 10.4L17.1 9L18.5 7.6L17.4 6.5L16 7.9L14.6 6.5L13.5 7.6L14.9 9L13.5 10.4L14.6 11.4Z" fill="#0A255C"/>
</svg>
