<svg width="24" height="25" viewBox="0 0 24 25" fill="none" xmlns="http://www.w3.org/2000/svg">
<path d="M14 12C14.3283 12 14.6534 11.9353 14.9567 11.8097C15.26 11.6841 15.5356 11.4999 15.7678 11.2678C15.9999 11.0356 16.1841 10.76 16.3097 10.4567C16.4353 10.1534 16.5 9.82831 16.5 9.5C16.5 8.83696 16.2366 8.20107 15.7678 7.73223C15.2989 7.26339 14.663 7 14 7C13.337 7 12.7011 7.26339 12.2322 7.73223C11.7634 8.20107 11.5 8.83696 11.5 9.5C11.5 9.82831 11.5647 10.1534 11.6903 10.4567C11.8159 10.76 12.0001 11.0356 12.2322 11.2678C12.7011 11.7366 13.337 12 14 12ZM14 2.5C17.86 2.5 21 5.63 21 9.5C21 14.75 14 22.5 14 22.5C14 22.5 7 14.75 7 9.5C7 7.64349 7.7375 5.86301 9.05025 4.55025C10.363 3.2375 12.1435 2.5 14 2.5ZM5 9.5C5 14 10.08 20.16 11 21.31L10 22.5C10 22.5 3 14.75 3 9.5C3 6.33 5.11 3.65 8 2.79C6.16 4.44 5 6.83 5 9.5Z" fill="#1C2A4B"/>
</svg>
