<svg width="430" height="256" viewBox="0 0 430 256" fill="none" xmlns="http://www.w3.org/2000/svg">
<rect x="32.1479" y="33.0052" width="4" height="10" rx="2" transform="rotate(22.9033 32.1479 33.0052)" fill="#D19F93"/>
<rect x="20.4727" y="60.6401" width="4" height="10" rx="2" transform="rotate(22.9033 20.4727 60.6401)" fill="#D19F93"/>
<rect x="34.6396" y="57.9409" width="4" height="10" rx="2" transform="rotate(-67.0967 34.6396 57.9409)" fill="#D19F93"/>
<rect x="7.00488" y="46.2656" width="4" height="10" rx="2" transform="rotate(-67.0967 7.00488 46.2656)" fill="#D19F93"/>
<g opacity="0.4">
<rect x="396.978" y="83.4915" width="4.83147" height="12.0787" rx="2.41573" transform="rotate(-6.71319 396.978 83.4915)" fill="#242F3F"/>
<rect x="401.214" y="119.479" width="4.83147" height="12.0787" rx="2.41573" transform="rotate(-6.71319 401.214 119.479)" fill="#242F3F"/>
<rect x="414.479" y="108.188" width="4.83147" height="12.0787" rx="2.41573" transform="rotate(-96.7132 414.479 108.188)" fill="#242F3F"/>
<rect x="378.492" y="112.424" width="4.83147" height="12.0787" rx="2.41573" transform="rotate(-96.7132 378.492 112.424)" fill="#242F3F"/>
</g>
<g clip-path="url(#clip0)">
<path d="M296.436 196.327C297.155 191.571 297.319 186.65 296.981 181.671C295.593 161.284 285.76 139.879 270.983 124.223C270.213 123.404 269.429 122.603 268.634 121.819C223.23 77.124 174.866 88.0983 161.073 126.337C160.701 127.361 160.358 128.404 160.04 129.467C153.479 151.312 137.638 169.734 131.267 186.71C129.686 190.918 128.687 195.031 128.559 199.095C128.288 207.31 131.565 215.291 140.756 223.283C141.639 224.051 142.535 224.82 143.44 225.578C175.268 252.347 218.636 272.316 276.137 230.426C288.023 221.765 294.414 209.671 296.436 196.327Z" fill="#EBEEF0"/>
<g clip-path="url(#clip1)">
<path d="M268.085 50.8471H266.916V18.6404C266.916 16.1925 266.437 13.7686 265.505 11.507C264.574 9.24548 263.209 7.19058 261.488 5.45966C259.766 3.72873 257.723 2.35569 255.475 1.41892C253.226 0.482153 250.816 2.07405e-06 248.382 0H180.535C175.619 -9.42446e-06 170.905 1.96387 167.429 5.45961C163.953 8.95536 162 13.6966 162 18.6403V195.329C162 197.777 162.479 200.201 163.411 202.463C164.342 204.724 165.708 206.779 167.429 208.51C169.15 210.241 171.193 211.614 173.442 212.551C175.69 213.487 178.101 213.97 180.535 213.97H248.382C253.297 213.97 258.012 212.006 261.487 208.51C264.963 205.014 266.916 200.273 266.916 195.329V73.7725H268.085V50.8471Z" fill="#0D2C68"/>
<path d="M249.129 4.84961H240.273C240.68 5.85382 240.836 6.94336 240.726 8.02223C240.616 9.10111 240.244 10.1362 239.642 11.0364C239.041 11.9365 238.228 12.6741 237.277 13.1841C236.325 13.6941 235.263 13.9609 234.185 13.961H195.316C194.238 13.9609 193.176 13.6941 192.224 13.1841C191.272 12.6741 190.46 11.9365 189.858 11.0364C189.257 10.1362 188.885 9.10112 188.775 8.02224C188.665 6.94336 188.82 5.85382 189.227 4.84961H180.956C179.138 4.84961 177.338 5.20967 175.659 5.90924C173.979 6.6088 172.454 7.63417 171.168 8.92681C169.883 10.2194 168.863 11.754 168.168 13.4429C167.472 15.1318 167.114 16.942 167.114 18.77V195.2C167.114 197.028 167.472 198.838 168.168 200.527C168.863 202.216 169.883 203.75 171.168 205.043C172.454 206.335 173.979 207.361 175.659 208.06C177.338 208.76 179.138 209.12 180.956 209.12H249.129C250.947 209.12 252.747 208.76 254.426 208.06C256.106 207.361 257.632 206.335 258.917 205.043C260.202 203.75 261.222 202.216 261.917 200.527C262.613 198.838 262.971 197.028 262.971 195.2V18.77C262.971 16.942 262.613 15.1318 261.917 13.4429C261.222 11.754 260.202 10.2194 258.917 8.92681C257.632 7.63417 256.106 6.6088 254.426 5.90924C252.747 5.20967 250.947 4.84961 249.129 4.84961Z" fill="white"/>
<path d="M215.043 136.486C233.352 136.486 248.196 121.558 248.196 103.144C248.196 84.7296 233.352 69.8018 215.043 69.8018C196.733 69.8018 181.89 84.7296 181.89 103.144C181.89 121.558 196.733 136.486 215.043 136.486Z" fill="#BCD9FD"/>
<path d="M227.444 108.444C225.508 108.444 223.633 108.133 221.891 107.558C221.354 107.387 220.74 107.511 220.312 107.939L216.89 111.369C212.48 109.129 208.879 105.528 206.639 101.126L210.061 97.6878C210.489 97.26 210.613 96.6456 210.442 96.1089C209.867 94.3667 209.556 92.4923 209.556 90.5556C209.556 89.6922 208.863 89 208 89H202.556C201.7 89 201 89.6922 201 90.5555C201 105.162 212.838 117 227.444 117C228.308 117 229 116.308 229 115.444V110C229 109.137 228.308 108.444 227.444 108.444Z" fill="#123882"/>
</g>
</g>
<rect x="114.854" y="181.007" width="3.0963" height="7.74075" rx="1.54815" transform="rotate(-6.71319 114.854 181.007)" fill="#BBF67F"/>
<rect x="117.568" y="204.07" width="3.0963" height="7.74075" rx="1.54815" transform="rotate(-6.71319 117.568 204.07)" fill="#BBF67F"/>
<rect x="126.07" y="196.834" width="3.0963" height="7.74075" rx="1.54815" transform="rotate(-96.7132 126.07 196.834)" fill="#BBF67F"/>
<rect x="103.006" y="199.548" width="3.0963" height="7.74075" rx="1.54815" transform="rotate(-96.7132 103.006 199.548)" fill="#BBF67F"/>
<defs>
<clipPath id="clip0">
<rect width="170" height="256" fill="white" transform="translate(127)"/>
</clipPath>
<clipPath id="clip1">
<rect width="106" height="214" fill="white" transform="translate(162)"/>
</clipPath>
</defs>
</svg>
